<svg xmlns="http://www.w3.org/2000/svg" width="2.41917in" height="2.7663in" viewBox="0 0 174.18039 199.17362">
  <defs>
    <style>
      .cls-1 {
        isolation: isolate;
      }

      .cls-2, .cls-5 {
        fill: #ffa114;
      }

      .cls-2, .cls-3 {
        mix-blend-mode: multiply;
      }

      .cls-3 {
        fill: #ffc421;
      }

      .cls-4 {
        fill: #f5f6fa;
      }
    </style>
  </defs>
  <g class="cls-1">
    <g id="Layer_1" data-name="Layer 1">
      <g>
        <g>
          <path class="cls-2" d="M138.913,201.23906c-19.61518,7.20691-47.71677-37.2707-59.38934-44.6495-22.90991-14.48336-60.90344-12.49144-47.41843-41.97545,6.24-13.64306,19.71769-31.82637,24.60706-42.53454C66.58884,50.44849,42.56394,11.14423,63,4.30435c19.87524-6.65218,35.40406,11.15819,54.73542,20.9264,12.81083,6.4731,26.07964,4.42237,39.00769,8.15573,8.89091,2.56789,17.1582,14.80432,12.60275,25.88993C141.13889,127.91714,172.18289,189.01548,138.913,201.23906Z" transform="translate(-3.30111 -2.85231)"/>
          <path class="cls-3" d="M153.52871,172.23863c33.6628-27.01776,29.6218-56.6076,1.702-50.9876-21.5238,4.3322-25.8871-8.0138-38.1303-27.1243-12.5543-19.594-40.809-5.1921-59.226-16.4276-31.1641-19.0128-31.7792,11.8187-32.0813,32.4516-.3001,20.47647-27.0466,31.72757-21.8135,58.0637,4.2532,21.4019,37.297,2.6546,69.4361,20.9251C117.026,213.93133,122.96291,196.77123,153.52871,172.23863Z" transform="translate(-3.30111 -2.85231)"/>
          <path class="cls-4" d="M5.11289,183.84188a.76715.76715,0,0,1-.5424-1.3096l24.1435-24.1436a.76721.76721,0,1,1,1.085,1.085l-24.1436,24.1435A.76465.76465,0,0,1,5.11289,183.84188Z" transform="translate(-3.30111 -2.85231)"/>
          <path class="cls-4" d="M125.57377,78.16108a.76705.76705,0,0,1-.5425-1.3095l50.6797-50.6797a.76714.76714,0,0,1,1.0849,1.0849l-50.6796,50.6797A.76454.76454,0,0,1,125.57377,78.16108Z" transform="translate(-3.30111 -2.85231)"/>
        </g>
        <path class="cls-5" d="M29.0446,53.77532a4.72834,4.72834,0,1,1-2.90828-5.86786A4.63283,4.63283,0,0,1,29.0446,53.77532Z" transform="translate(-3.30111 -2.85231)"/>
        <path class="cls-5" d="M38.53357,41.92738a1.73282,1.73282,0,0,1-2.06268,1.26579,1.937,1.937,0,0,1,1.28057-3.556A1.73273,1.73273,0,0,1,38.53357,41.92738Z" transform="translate(-3.30111 -2.85231)"/>
        <path class="cls-5" d="M170.63852,187.06586a4.57595,4.57595,0,1,1-4.5355-3.9685A4.28053,4.28053,0,0,1,170.63852,187.06586Z" transform="translate(-3.30111 -2.85231)"/>
        <path class="cls-5" d="M59.16808,195.56976c0,3.0267-2.8766,5.4803-6.4252,5.4803s-6.4251-2.4536-6.4251-5.4803,2.8766-5.4803,6.4251-5.4803S59.16808,192.54306,59.16808,195.56976Z" transform="translate(-3.30111 -2.85231)"/>
        <path class="cls-5" d="M39.89258,190.46736a3.80056,3.80056,0,1,1-3.7796-3.4015A3.60555,3.60555,0,0,1,39.89258,190.46736Z" transform="translate(-3.30111 -2.85231)"/>
      </g>
    </g>
  </g>
</svg>
